<svg xmlns="http://www.w3.org/2000/svg" xmlns:xlink="http://www.w3.org/1999/xlink" version="1.1" id="Capa_1" x="0px" y="0px" viewBox="0 0 512 512" style="enable-background:new 0 0 512 512;" xml:space="preserve" fill="#fff">
<g>
	<path d="M452,120h-60.9C383.1,52.5,325.6,0,256,0S128.9,52.5,120.9,120H60c-11,0-20,9-20,20v352c0,11,9,20,20,20h392   c11,0,20-9,20-20V140C472,129,463,120,452,120z M256,32c47.5,0,95,42.7,102.7,88H153.3C161,74.7,208.5,32,256,32z M440,480H72V160   h48v35c0,11,6,20,17,20s15-9,15-20v-35h208v37c0,11,5,20,16,20s16-9,16-20v-37h48V480z" fill="#69251c"/>
</g>
</svg>